<svg width="16" height="13" viewBox="0 0 16 13" fill="none" xmlns="http://www.w3.org/2000/svg">
<path d="M9.10206 0.131033C9.05763 0.174292 9.02237 0.226054 8.99837 0.283232C8.97437 0.340411 8.96213 0.401835 8.96237 0.463846L8.96237 2.90522C8.96237 3.09567 8.80798 3.25006 8.61754 3.25006L0.983054 3.25006C0.72786 3.25006 0.520996 3.45693 0.520996 3.71212L0.520996 8.46385C0.520996 8.71905 0.72786 8.92591 0.983054 8.92591L8.61754 8.92591C8.80798 8.92591 8.96237 9.08031 8.96237 9.27075L8.96237 11.719C8.95756 11.9742 9.16048 12.1849 9.41561 12.1897C9.4788 12.1909 9.54156 12.1792 9.60002 12.1551C9.65847 12.1311 9.71138 12.0953 9.75547 12.05L15.3831 6.42246C15.47 6.33686 15.5196 6.22034 15.521 6.09832C15.5212 6.03673 15.5091 5.97572 15.4854 5.91887C15.4618 5.86202 15.4269 5.81048 15.3831 5.76728L9.75547 0.139697C9.57744 -0.043116 9.28491 -0.0469955 9.10206 0.131033Z" fill="url(#paint0_linear_17_2479)"/>
<defs>
<linearGradient id="paint0_linear_17_2479" x1="17.5664" y1="6.09491" x2="0.520996" y2="6.09491" gradientUnits="userSpaceOnUse">
<stop stop-color="#1F4EF1"/>
<stop offset="1" stop-color="#009BF7"/>
</linearGradient>
</defs>
</svg>
