<svg width="43" height="43" viewBox="0 0 43 43" fill="none" xmlns="http://www.w3.org/2000/svg">
<g clip-path="url(#clip0_1_45)">
<circle cx="21.5" cy="21.5" r="21.5" fill="white"/>
</g>
<path d="M13.9393 26.9393C13.3536 27.5251 13.3536 28.4749 13.9393 29.0607C14.5251 29.6464 15.4749 29.6464 16.0607 29.0607L13.9393 26.9393ZM30.5 14C30.5 13.1716 29.8284 12.5 29 12.5L15.5 12.5C14.6716 12.5 14 13.1716 14 14C14 14.8284 14.6716 15.5 15.5 15.5H27.5V27.5C27.5 28.3284 28.1716 29 29 29C29.8284 29 30.5 28.3284 30.5 27.5L30.5 14ZM16.0607 29.0607L30.0607 15.0607L27.9393 12.9393L13.9393 26.9393L16.0607 29.0607Z" fill="#072C6D"/>
<defs>
<clipPath id="clip0_1_45">
<rect width="43" height="43" fill="white"/>
</clipPath>
</defs>
</svg>
