<svg width="36" height="36" viewBox="0 0 36 36" fill="none" xmlns="http://www.w3.org/2000/svg">
<g clip-path="url(#clip0_1_250)">
<circle cx="18" cy="18" r="18" fill="#008FE5" fill-opacity="0.1"/>
<g clip-path="url(#clip1_1_250)">
<path d="M11.4375 15.5116V20.4062C11.8089 19.8921 12.2404 19.4241 12.7228 19.0122C14.0787 17.8541 15.7792 17.1762 17.56 17.0838L18.1822 15.4688L15.8206 15.2938L15.8669 14.6706L18.6481 14.8766C18.6967 14.8802 18.7438 14.8951 18.7856 14.9202C18.8274 14.9453 18.8628 14.9798 18.8889 15.021C18.9149 15.0621 18.931 15.1088 18.9358 15.1574C18.9407 15.2059 18.934 15.2548 18.9166 15.3003L18.0491 17.5531L19.6091 15.0241L20.1403 15.3522L19.0413 17.1344C20.6083 17.3281 22.0829 17.9817 23.2787 19.0128C23.7338 19.3983 24.1435 19.8344 24.5 20.3125C24.5216 20.3409 24.5409 20.3728 24.5625 20.4019V11.4375H18.5075L20.0494 13.9375H22.0625C22.0928 13.9375 22.1229 13.9419 22.1519 13.9506L22.7975 14.1428C22.9059 14.17 23.0018 14.2331 23.0699 14.3217C23.138 14.4102 23.1741 14.5192 23.1725 14.6309C23.1731 14.7462 23.1341 14.8581 23.062 14.948C22.9899 15.0379 22.8892 15.1003 22.7766 15.1247L22.0478 15.2866L21.9125 14.6766L22.1937 14.6141L22.0169 14.5625H19.875C19.8217 14.5625 19.7693 14.5489 19.7227 14.5229C19.6762 14.4969 19.637 14.4594 19.6091 14.4141L18.1716 12.0837L18.9122 13.8144C18.9314 13.8592 18.9399 13.908 18.9369 13.9567C18.9339 14.0054 18.9195 14.0527 18.895 14.0949C18.8704 14.1371 18.8363 14.1729 18.7954 14.1995C18.7545 14.2261 18.7079 14.2428 18.6594 14.2481L17.7219 14.3522L17.6531 13.7313L18.1722 13.6734L17.2153 11.4375H13.4153C13.0837 12.5209 12.3841 13.4546 11.4375 14.0772V14.8063C12.618 14.1511 13.5145 13.0826 13.9547 11.8063L14.5456 12.0094C14.2838 12.7691 13.8745 13.4696 13.3411 14.0707C12.8077 14.6717 12.1608 15.1614 11.4375 15.5116ZM14.5125 13.7187L15.0716 13.4391L15.5975 14.4909C15.6195 14.5346 15.6309 14.5827 15.6309 14.6316C15.6309 14.6804 15.6195 14.7286 15.5975 14.7722L15.0716 15.8241L14.5125 15.5444L14.9687 14.6312L14.5125 13.7187ZM11.4375 11.4375V13.3047C12.0392 12.8148 12.4945 12.1688 12.7537 11.4375H11.4375ZM24.5625 21.5597C24.4783 21.4068 24.3889 21.257 24.2944 21.1103L24.2172 21.2647C24.1912 21.3166 24.1513 21.3603 24.1019 21.3908C24.0525 21.4214 23.9956 21.4375 23.9375 21.4375H23.0938L22.375 21.9172V22.3581L22.4728 22.3894C22.5192 22.4047 22.5614 22.4307 22.5959 22.4653L23.2209 23.0903L22.7791 23.5322L22.2066 22.9597L21.3866 22.6875H20.9688L20.1628 23.7619L19.9628 24.5625H24.25C24.1671 24.5625 24.0877 24.5295 24.0291 24.4709L23.4041 23.8459C23.3455 23.7873 23.3126 23.7079 23.3126 23.625C23.3126 23.5421 23.3455 23.4627 23.4041 23.4041L24.0291 22.7791C24.0877 22.7205 24.1671 22.6876 24.25 22.6876C24.3329 22.6876 24.4123 22.7205 24.4709 22.7791L24.5625 22.8706V21.5597Z" fill="#009BF7"/>
<path d="M26.75 10.5113V9.25H25.1763C25.1386 9.51027 25.0085 9.74827 24.8097 9.9204C24.6109 10.0925 24.3567 10.1873 24.0938 10.1873C23.8308 10.1873 23.5766 10.0925 23.3778 9.9204C23.179 9.74827 23.0489 9.51027 23.0112 9.25H22.0513C22.0136 9.51027 21.8835 9.74827 21.6847 9.9204C21.4859 10.0925 21.2317 10.1873 20.9688 10.1873C20.7058 10.1873 20.4516 10.0925 20.2528 9.9204C20.054 9.74827 19.9239 9.51027 19.8862 9.25H18.9263C18.8886 9.51027 18.7585 9.74827 18.5597 9.9204C18.3609 10.0925 18.1067 10.1873 17.8438 10.1873C17.5808 10.1873 17.3266 10.0925 17.1278 9.9204C16.929 9.74827 16.7989 9.51027 16.7612 9.25H15.8013C15.7667 9.48404 15.6572 9.70058 15.4892 9.86713C15.3212 10.0337 15.1037 10.1413 14.8694 10.1737C14.8666 10.2912 14.8644 10.4091 14.8553 10.525L14.2322 10.475C14.2428 10.3438 14.2472 10.2103 14.2481 10.0763C14.0862 9.99922 13.9457 9.88358 13.8391 9.7395C13.7324 9.59542 13.6627 9.42732 13.6362 9.25H12.6762C12.6386 9.51027 12.5085 9.74827 12.3097 9.9204C12.1109 10.0925 11.8567 10.1873 11.5938 10.1873C11.3308 10.1873 11.0766 10.0925 10.8778 9.9204C10.679 9.74827 10.5489 9.51027 10.5113 9.25H9.25V10.5113C9.51027 10.5489 9.74827 10.679 9.9204 10.8778C10.0925 11.0766 10.1873 11.3308 10.1873 11.5938C10.1873 11.8567 10.0925 12.1109 9.9204 12.3097C9.74827 12.5085 9.51027 12.6386 9.25 12.6762V13.6362C9.39371 13.6576 9.53169 13.7076 9.65582 13.7831C9.77995 13.8586 9.88773 13.9582 9.97281 14.0759C10.2646 13.9903 10.5461 13.8731 10.8125 13.7266V11.125C10.8125 11.0421 10.8454 10.9626 10.904 10.904C10.9626 10.8454 11.0421 10.8125 11.125 10.8125H12.9244C13.0023 10.4111 13.0202 10.0004 12.9775 9.59375L13.5991 9.53125C13.6163 9.69736 13.625 9.86425 13.625 10.0312C13.6233 10.2931 13.6002 10.5544 13.5559 10.8125H24.875C24.9579 10.8125 25.0374 10.8454 25.096 10.904C25.1546 10.9626 25.1875 11.0421 25.1875 11.125V24.875C25.1875 24.9579 25.1546 25.0374 25.096 25.096C25.0374 25.1546 24.9579 25.1875 24.875 25.1875H11.125C11.0421 25.1875 10.9626 25.1546 10.904 25.096C10.8454 25.0374 10.8125 24.9579 10.8125 24.875V15.7719C10.3087 15.9517 9.78329 16.0643 9.25 16.1066V16.7628C9.51027 16.8004 9.74827 16.9306 9.9204 17.1294C10.0925 17.3282 10.1873 17.5823 10.1873 17.8453C10.1873 18.1083 10.0925 18.3625 9.9204 18.5613C9.74827 18.7601 9.51027 18.8902 9.25 18.9278V19.8878C9.51027 19.9254 9.74827 20.0556 9.9204 20.2544C10.0925 20.4532 10.1873 20.7073 10.1873 20.9703C10.1873 21.2333 10.0925 21.4875 9.9204 21.6863C9.74827 21.8851 9.51027 22.0152 9.25 22.0528V23.0128C9.51027 23.0504 9.74827 23.1806 9.9204 23.3794C10.0925 23.5782 10.1873 23.8323 10.1873 24.0953C10.1873 24.3583 10.0925 24.6125 9.9204 24.8113C9.74827 25.0101 9.51027 25.1402 9.25 25.1778V26.75H10.5113C10.5489 26.4897 10.679 26.2517 10.8778 26.0796C11.0766 25.9075 11.3308 25.8127 11.5938 25.8127C11.8567 25.8127 12.1109 25.9075 12.3097 26.0796C12.5085 26.2517 12.6386 26.4897 12.6762 26.75H13.6362C13.6739 26.4897 13.804 26.2517 14.0028 26.0796C14.2016 25.9075 14.4558 25.8127 14.7188 25.8127C14.9817 25.8127 15.2359 25.9075 15.4347 26.0796C15.6335 26.2517 15.7636 26.4897 15.8013 26.75H16.7612C16.7989 26.4897 16.929 26.2517 17.1278 26.0796C17.3266 25.9075 17.5808 25.8127 17.8438 25.8127C18.1067 25.8127 18.3609 25.9075 18.5597 26.0796C18.7585 26.2517 18.8886 26.4897 18.9263 26.75H19.8862C19.9239 26.4897 20.054 26.2517 20.2528 26.0796C20.4516 25.9075 20.7058 25.8127 20.9688 25.8127C21.2317 25.8127 21.4859 25.9075 21.6847 26.0796C21.8835 26.2517 22.0136 26.4897 22.0513 26.75H23.0112C23.0489 26.4897 23.179 26.2517 23.3778 26.0796C23.5766 25.9075 23.8308 25.8127 24.0938 25.8127C24.3567 25.8127 24.6109 25.9075 24.8097 26.0796C25.0085 26.2517 25.1386 26.4897 25.1763 26.75H26.75V25.1763C26.4897 25.1386 26.2517 25.0085 26.0796 24.8097C25.9075 24.6109 25.8127 24.3567 25.8127 24.0938C25.8127 23.8308 25.9075 23.5766 26.0796 23.3778C26.2517 23.179 26.4897 23.0489 26.75 23.0112V22.0513C26.4897 22.0136 26.2517 21.8835 26.0796 21.6847C25.9075 21.4859 25.8127 21.2317 25.8127 20.9688C25.8127 20.7058 25.9075 20.4516 26.0796 20.2528C26.2517 20.054 26.4897 19.9239 26.75 19.8862V18.9263C26.4897 18.8886 26.2517 18.7585 26.0796 18.5597C25.9075 18.3609 25.8127 18.1067 25.8127 17.8438C25.8127 17.5808 25.9075 17.3266 26.0796 17.1278C26.2517 16.929 26.4897 16.7989 26.75 16.7612V15.8013C26.4897 15.7636 26.2517 15.6335 26.0796 15.4347C25.9075 15.2359 25.8127 14.9817 25.8127 14.7188C25.8127 14.4558 25.9075 14.2016 26.0796 14.0028C26.2517 13.804 26.4897 13.6739 26.75 13.6362V12.6762C26.4897 12.6386 26.2517 12.5085 26.0796 12.3097C25.9075 12.1109 25.8127 11.8567 25.8127 11.5938C25.8127 11.3308 25.9075 11.0766 26.0796 10.8778C26.2517 10.679 26.4897 10.5489 26.75 10.5113Z" fill="#009BF7"/>
<path d="M24.0669 23.6254L24.3794 23.9379H24.5625V23.7547L24.25 23.4422L24.0669 23.6254ZM10.8125 15.1069V14.4229C10.6086 14.5188 10.3981 14.6003 10.1828 14.6669C10.1828 14.6844 10.1875 14.7013 10.1875 14.7191C10.1865 14.953 10.1097 15.1803 9.96875 15.3669C10.2566 15.3033 10.5388 15.2163 10.8125 15.1069ZM11.4375 24.5629H13.5881L13.3453 24.0775C13.3237 24.0342 13.3125 23.9863 13.3125 23.9379V23.0004C13.3125 22.9175 13.3454 22.838 13.404 22.7794C13.4626 22.7208 13.5421 22.6879 13.625 22.6879H14.875C14.9579 22.6879 15.0373 22.7208 15.0959 22.7794L16.0334 23.7169C16.0745 23.7579 16.1033 23.8096 16.1166 23.866C16.13 23.9225 16.1274 23.9815 16.1091 24.0366L15.9338 24.5629H18.1194L18.2644 24.2729L17.8328 23.6254H17.375C17.3094 23.6254 17.2454 23.6047 17.1922 23.5664C17.139 23.528 17.0992 23.4739 17.0784 23.4116L16.7659 22.4741C16.7509 22.4289 16.7464 22.3809 16.7527 22.3338C16.7591 22.2866 16.7761 22.2415 16.8025 22.2019L17.3269 21.4154L17.0953 20.9525C17.0736 20.9092 17.0624 20.8613 17.0624 20.8129C17.0624 20.7644 17.0736 20.7165 17.0953 20.6732L17.4078 20.0482C17.4323 19.9996 17.4689 19.9581 17.5141 19.9279L18.4516 19.3029C18.503 19.2687 18.5633 19.2504 18.625 19.2504H19.875C19.9234 19.2498 19.9712 19.2605 20.0147 19.2816L20.4775 19.5132L21.2641 18.9888C21.3156 18.9552 21.3759 18.9375 21.4375 18.9379H22.1372C21.1047 18.248 19.9144 17.8308 18.6772 17.725L18.2134 18.4769C18.1855 18.5223 18.1463 18.5597 18.0998 18.5857C18.0532 18.6117 18.0008 18.6253 17.9475 18.6254H17.4216C17.3709 18.6253 17.3209 18.613 17.276 18.5893C17.2312 18.5657 17.1927 18.5315 17.164 18.4897C17.1353 18.4479 17.1172 18.3998 17.1113 18.3494C17.1054 18.299 17.1118 18.248 17.13 18.2007L17.3125 17.7266C16.0512 17.8418 14.8398 18.2757 13.7922 18.9875C13.7941 18.9875 13.7966 18.9891 13.7984 18.9904L14.7359 19.6154C14.7811 19.6456 14.8177 19.6871 14.8422 19.7357L15.1547 20.3607C15.184 20.4193 15.1941 20.4857 15.1835 20.5505C15.173 20.6152 15.1423 20.6749 15.0959 20.7213L13.8459 21.9713C13.7873 22.0299 13.7079 22.0628 13.625 22.0629H13.1294L12.9025 22.2897L13.1397 22.4082L12.8603 22.9675L12.2353 22.655V22.6519C12.2232 22.6472 12.2114 22.6416 12.2 22.6354L11.4375 22.1254V24.5629ZM14.9078 19.0775C14.884 19.0299 14.8728 18.9769 14.8752 18.9237C14.8776 18.8705 14.8936 18.8188 14.9216 18.7735C14.9496 18.7282 14.9887 18.6908 15.0353 18.6648C15.0818 18.6389 15.1342 18.6253 15.1875 18.6254H16.75C16.8329 18.6254 16.9124 18.6583 16.971 18.7169C17.0296 18.7755 17.0625 18.855 17.0625 18.9379V19.8754C17.0625 19.941 17.0419 20.0049 17.0035 20.0581C16.9651 20.1114 16.911 20.1512 16.8487 20.1719L15.9112 20.4844C15.8794 20.4949 15.8461 20.5003 15.8125 20.5004C15.7544 20.5004 15.6975 20.4842 15.6481 20.4537C15.5987 20.4232 15.5588 20.3795 15.5328 20.3275L14.9078 19.0775Z" fill="#009BF7"/>
<path d="M16.4371 19.6497V19.25H15.6927L15.9702 19.8053L16.4371 19.6497ZM18.8177 24.5625H19.3177L19.5712 23.5491C19.5813 23.5087 19.5993 23.4708 19.6243 23.4375L20.5618 22.1875C20.5909 22.1486 20.6287 22.1171 20.6722 22.0954C20.7156 22.0737 20.7635 22.0625 20.8121 22.0625H21.4371C21.4708 22.0625 21.5042 22.068 21.5362 22.0787L21.7496 22.1497V21.75C21.7496 21.6986 21.7623 21.6479 21.7865 21.6026C21.8108 21.5572 21.8459 21.5185 21.8887 21.49L22.8262 20.865C22.8776 20.8309 22.9379 20.8126 22.9996 20.8125H23.744L23.8812 20.5381C23.6036 20.1848 23.2938 19.8582 22.9555 19.5625H21.5309L20.6721 20.135C20.6264 20.1655 20.5734 20.1833 20.5185 20.1868C20.4636 20.1903 20.4088 20.1792 20.3596 20.1547L19.8009 19.875H18.7184L17.9287 20.4016L17.724 20.8125L17.9668 21.2978C17.9913 21.347 18.0024 21.4018 17.9989 21.4567C17.9955 21.5116 17.9776 21.5646 17.9471 21.6103L17.4059 22.4212L17.5999 23H17.9996C18.051 23 18.1017 23.0127 18.147 23.0369C18.1924 23.0612 18.2311 23.0963 18.2596 23.1391L18.8846 24.0766C18.9151 24.1223 18.933 24.1753 18.9364 24.2302C18.9399 24.285 18.9288 24.3398 18.9043 24.3891L18.8177 24.5625ZM13.9371 23.3125V23.8637L14.2168 24.4228C14.2384 24.4662 14.2497 24.514 14.2496 24.5625H15.2743L15.4546 24.0219L14.7452 23.3125H13.9371ZM11.5762 21.3272L11.6799 21.5363L12.3362 21.9737L12.7799 21.53C12.8381 21.4714 12.917 21.4381 12.9996 21.4375H13.4952L14.4952 20.4375L14.3205 20.0881L13.5309 19.5625H13.0468C12.4675 20.0704 11.9713 20.6659 11.5762 21.3272Z" fill="#009BF7"/>
</g>
</g>
<defs>
<clipPath id="clip0_1_250">
<rect width="36" height="36" fill="white"/>
</clipPath>
<clipPath id="clip1_1_250">
<rect width="18" height="18" fill="white" transform="translate(9 9)"/>
</clipPath>
</defs>
</svg>
