<svg width="36" height="36" viewBox="0 0 36 36" fill="none" xmlns="http://www.w3.org/2000/svg">
<g clip-path="url(#clip0_1_263)">
<circle cx="18" cy="18" r="18" fill="#008FE5" fill-opacity="0.1"/>
<path d="M26.421 21.96C26.3718 21.921 22.8 19.3464 21.8196 19.5312C21.3516 19.614 21.084 19.9332 20.547 20.5722C20.4606 20.6754 20.253 20.9226 20.0916 21.0984C19.7522 20.9877 19.4212 20.853 19.101 20.6952C17.4483 19.8906 16.113 18.5553 15.3084 16.9026C15.1505 16.5825 15.0158 16.2514 14.9052 15.912C15.0816 15.75 15.3288 15.5424 15.4344 15.4536C16.0704 14.9196 16.3902 14.652 16.473 14.1828C16.6428 13.2108 14.07 9.6144 14.043 9.582C13.9263 9.41524 13.7739 9.27652 13.597 9.17586C13.4201 9.07521 13.223 9.01514 13.02 9C11.9772 9 9 12.8622 9 13.5126C9 13.5504 9.0546 17.3928 13.7928 22.2126C18.6078 26.9454 22.4496 27 22.4874 27C23.1384 27 27 24.0228 27 22.98C26.985 22.7777 26.9253 22.5813 26.8252 22.4049C26.7251 22.2285 26.587 22.0765 26.421 21.96Z" fill="#009BF7"/>
</g>
<defs>
<clipPath id="clip0_1_263">
<rect width="36" height="36" fill="white"/>
</clipPath>
</defs>
</svg>
