<svg width="21" height="25" viewBox="0 0 21 25" fill="none" xmlns="http://www.w3.org/2000/svg">
<path d="M10.5001 0.416482C9.22279 0.387581 7.95283 0.617865 6.76695 1.09343C5.58107 1.56899 4.50388 2.27997 3.60042 3.18343C2.69696 4.08689 1.98599 5.16408 1.51042 6.34996C1.03486 7.53583 0.804573 8.80579 0.833474 10.0831C0.833474 16.9404 9.74493 24.1481 10.1256 24.4502C10.2315 24.5362 10.3637 24.5831 10.5001 24.5831C10.6365 24.5831 10.7688 24.5362 10.8747 24.4502C11.2554 24.1481 20.1668 16.9404 20.1668 10.0831C20.1957 8.80579 19.9654 7.53583 19.4899 6.34996C19.0143 5.16408 18.3033 4.08689 17.3999 3.18343C16.4964 2.27997 15.4192 1.56899 14.2333 1.09343C13.0475 0.617865 11.7775 0.387581 10.5001 0.416482ZM5.96889 9.15877C5.96889 8.26258 6.23464 7.38651 6.73254 6.64135C7.23044 5.89619 7.93813 5.3154 8.76611 4.97244C9.59408 4.62948 10.5052 4.53975 11.3841 4.71459C12.2631 4.88943 13.0705 5.32099 13.7042 5.9547C14.3379 6.5884 14.7695 7.39579 14.9443 8.27477C15.1192 9.15375 15.0294 10.0648 14.6865 10.8928C14.3435 11.7208 13.7627 12.4285 13.0176 12.9264C12.2724 13.4243 11.3963 13.69 10.5001 13.69C9.29887 13.6884 8.14726 13.2105 7.29783 12.3611C6.4484 11.5117 5.97049 10.36 5.96889 9.15877Z" fill="#53C5A2"/>
</svg>
