<svg width="128" height="64" viewBox="0 0 128 64" fill="none" xmlns="http://www.w3.org/2000/svg">
<path fill-rule="evenodd" clip-rule="evenodd" d="M13.7747 45.4365C12.1516 45.4365 10.7828 45.9948 9.64858 47.1113C8.51437 48.2278 7.94727 49.5753 7.94727 51.173C7.94727 52.7708 8.51437 54.1183 9.64858 55.2348C10.7828 56.3513 12.1516 56.9095 13.7747 56.9095C15.3978 56.9095 16.7276 56.3513 17.8813 55.2348C19.0351 54.1183 19.6022 52.7708 19.6022 51.173C19.6022 49.5753 19.0351 48.2278 17.8813 47.1113C16.7276 45.9948 15.3587 45.4365 13.7747 45.4365Z" fill="white"/>
<path fill-rule="evenodd" clip-rule="evenodd" d="M12.4846 33.3278C12.4846 31.5761 11.8588 30.0746 10.5878 28.8233C9.31667 27.5721 7.79137 26.9561 6.01184 26.9561C4.23231 26.9561 2.707 27.5721 1.43591 28.8233C0.164818 30.0746 -0.460938 31.5761 -0.460938 33.3278C-0.460938 35.0796 0.164818 36.5811 1.43591 37.8323C2.707 39.0836 4.23231 39.6996 6.01184 39.6996C7.79137 39.6996 9.31667 39.0836 10.5878 37.8323C11.8588 36.5811 12.4846 35.0796 12.4846 33.3278Z" fill="white"/>
<path fill-rule="evenodd" clip-rule="evenodd" d="M13.7744 8.47656C11.7993 8.47656 10.1176 9.16956 8.72913 10.5363C7.34071 11.9031 6.63672 13.5586 6.63672 15.5028C6.63672 17.4471 7.32115 19.1026 8.72913 20.4693C10.1176 21.8361 11.7993 22.5291 13.7744 22.5291C15.7495 22.5291 17.4312 21.8361 18.8196 20.4693C20.208 19.1026 20.912 17.4471 20.912 15.5028C20.912 13.5586 20.208 11.9031 18.8196 10.5363C17.4312 9.16956 15.7495 8.47656 13.7744 8.47656Z" fill="white"/>
<path fill-rule="evenodd" clip-rule="evenodd" d="M50.0309 46.707C48.799 46.707 47.7234 47.1498 46.8434 48.016C45.9634 48.8823 45.5137 49.941 45.5137 51.1538C45.5137 52.3665 45.9634 53.4253 46.8434 54.2915C47.743 55.177 48.799 55.6005 50.0309 55.6005C51.2629 55.6005 52.3385 55.1578 53.2184 54.2915C54.118 53.406 54.5482 52.3665 54.5482 51.1538C54.5482 49.941 54.0984 48.8823 53.2184 48.016C52.3189 47.1305 51.2629 46.707 50.0309 46.707Z" fill="white"/>
<path fill-rule="evenodd" clip-rule="evenodd" d="M31.9028 53.7139C30.4753 53.7139 29.2433 54.2144 28.246 55.2154C27.2291 56.2164 26.7207 57.4099 26.7207 58.8151C26.7207 60.2204 27.2291 61.4139 28.246 62.4149C29.2629 63.4159 30.4753 63.9164 31.9028 63.9164C33.3304 63.9164 34.5624 63.4159 35.5597 62.4149C36.5766 61.4139 37.085 60.2204 37.085 58.8151C37.085 57.4099 36.5766 56.2164 35.5597 55.2154C34.5428 54.2144 33.3304 53.7139 31.9028 53.7139Z" fill="white"/>
<path fill-rule="evenodd" clip-rule="evenodd" d="M31.9021 0.179688C29.751 0.179688 27.9128 0.930437 26.4071 2.41269C24.9013 3.89494 24.1387 5.70444 24.1387 7.82194C24.1387 9.93944 24.9013 11.7489 26.4071 13.2312C27.9128 14.7134 29.751 15.4642 31.9021 15.4642C34.0532 15.4642 35.8914 14.7134 37.3971 13.2312C38.9029 11.7489 39.6655 9.93944 39.6655 7.82194C39.6655 5.70444 38.9029 3.89494 37.3971 2.41269C35.8914 0.930437 34.0532 0.179688 31.9021 0.179688Z" fill="white"/>
<path fill-rule="evenodd" clip-rule="evenodd" d="M31.5718 18.6406C27.2501 18.6406 23.5933 20.1229 20.5622 23.1066C17.5507 26.0711 16.0254 29.6901 16.0254 33.9444C16.0254 38.1986 17.5312 41.7984 20.5622 44.7821C23.5737 47.7466 27.2501 49.2481 31.5718 49.2481C35.8935 49.2481 39.5503 47.7659 42.5814 44.7821C45.5929 41.8176 47.1182 38.1986 47.1182 33.9444C47.1182 29.6901 45.6125 26.0904 42.5814 23.1066C39.5699 20.1421 35.8935 18.6406 31.5718 18.6406Z" fill="white"/>
<path fill-rule="evenodd" clip-rule="evenodd" d="M31.5713 22.9717L34.9543 38.2947L37.1641 48.2854C35.4432 48.9207 33.5855 49.2479 31.5908 49.2479C29.5962 49.2479 27.7384 48.9207 26.0176 48.2854L28.2273 38.2947L31.6104 22.9717H31.5713Z" fill="#0079C1"/>
<path d="M23.5131 42.4334C25.5664 44.4546 28.4215 45.7251 31.5699 45.7251C34.7183 45.7251 37.5538 44.4739 39.6267 42.4334C41.68 40.4121 42.9706 37.6016 42.9706 34.5024C42.9706 31.4031 41.6995 28.6119 39.6267 26.5714C37.5734 24.5501 34.7183 23.2796 31.5699 23.2796C28.4215 23.2796 25.586 24.5309 23.5131 26.5714C21.4598 28.5926 20.1692 31.4031 20.1692 34.5024C20.1692 37.6016 21.4403 40.3929 23.5131 42.4334ZM31.5699 46.7069C28.1477 46.7069 25.0384 45.3401 22.8092 43.1264C20.5603 40.9126 19.1719 37.8711 19.1719 34.5024C19.1719 31.1336 20.5603 28.0729 22.8092 25.8784C25.058 23.6646 28.1477 22.2979 31.5699 22.2979C34.9921 22.2979 38.1013 23.6646 40.3306 25.8784C42.5795 28.0921 43.9679 31.1336 43.9679 34.5024C43.9679 37.8711 42.5795 40.9319 40.3306 43.1264C38.0818 45.3401 34.9921 46.7069 31.5699 46.7069Z" fill="#0079C1"/>
<path d="M27.1714 38.8339C28.2861 39.9312 29.8505 40.6242 31.5518 40.6242C33.2531 40.6242 34.8175 39.9504 35.9322 38.8339C37.0468 37.7367 37.7508 36.1967 37.7508 34.5219C37.7508 32.8472 37.0468 31.3072 35.9322 30.2099C34.8175 29.1127 33.2531 28.4197 31.5518 28.4197C29.8505 28.4197 28.2861 29.0934 27.1714 30.2099C26.0568 31.3072 25.3528 32.8472 25.3528 34.5219C25.3528 36.1967 26.0568 37.7367 27.1714 38.8339ZM31.5714 41.6059C29.5767 41.6059 27.7776 40.8167 26.4674 39.5269C25.1572 38.2372 24.3555 36.4662 24.3555 34.5027C24.3555 32.5392 25.1572 30.7682 26.4674 29.4784C27.7776 28.1887 29.5767 27.3994 31.5714 27.3994C33.566 27.3994 35.3651 28.1887 36.6753 29.4784C37.9855 30.7682 38.7872 32.5392 38.7872 34.5027C38.7872 36.4662 37.9855 38.2372 36.6753 39.5269C35.3651 40.8167 33.566 41.6059 31.5714 41.6059Z" fill="#0079C1"/>
<path d="M118.924 26.2251H120.82C122.717 26.2251 123.656 27.2646 123.656 29.0934C123.656 30.9221 122.717 32.0194 120.82 32.0194H118.924V26.2251ZM118.924 34.9261H122.228C125.455 34.9261 127.508 32.2696 127.508 29.0356C127.508 25.8016 125.494 23.3184 122.267 23.3184H115.13V42.8956H118.904V34.9261H118.924ZM102.165 23.3184V42.8956H112.803V39.9119H105.939V33.8481H112.197V30.8644H105.939V26.3021H112.803V23.3184H102.165ZM94.9683 26.3021V39.9119H89.3755C90.5293 37.4671 91.1746 35.2534 91.1746 30.7489V26.3021H94.9683ZM87.4591 23.3184V29.4206C87.4591 34.8106 86.9702 37.0436 85.6405 39.9119H84.4476V46.8226H88.0849V42.8956H96.3176V46.8226H99.9549V39.9119H98.7425V23.3184H87.4591ZM69.5661 23.3184V42.8956H73.6336L79.1481 28.6891H79.1677C78.7766 30.4601 78.6984 32.5199 78.6984 35.5036V42.8956H82.2183V23.3184H78.1508L72.6362 37.5441H72.6167C72.9687 35.9271 73.086 32.9626 73.086 30.6334V23.3184H69.5661ZM55.1539 23.3184V32.6931C55.1539 39.7964 54.6845 40.3931 53.5308 40.3931C53.081 40.3931 52.5726 40.3354 52.3184 40.2584V42.9919C53.0419 43.1844 53.7263 43.2421 54.6063 43.2421C57.7743 43.2421 58.8694 40.3354 58.8694 33.8096V26.3021H62.8977V42.8956H66.6719V23.3184H55.1539Z" fill="white"/>
</svg>
