<svg width="30" height="23" viewBox="0 0 30 23" fill="none" xmlns="http://www.w3.org/2000/svg">
<path d="M28.75 12.5834H1.25C0.56 12.5834 0 12.0234 0 11.3334C0 10.6434 0.56 10.0834 1.25 10.0834H28.75C29.44 10.0834 30 10.6434 30 11.3334C30 12.0234 29.44 12.5834 28.75 12.5834ZM28.75 3H1.25C0.56 3 0 2.44 0 1.75C0 1.06 0.56 0.5 1.25 0.5H28.75C29.44 0.5 30 1.06 30 1.75C30 2.44 29.44 3 28.75 3ZM28.75 22.1666H1.25C0.56 22.1666 0 21.6066 0 20.9166C0 20.2266 0.56 19.6666 1.25 19.6666H28.75C29.44 19.6666 30 20.2266 30 20.9166C30 21.6066 29.44 22.1666 28.75 22.1666Z" fill="white"/>
</svg>
