<svg width="25" height="29" viewBox="0 0 25 29" fill="none" xmlns="http://www.w3.org/2000/svg">
<rect width="25" height="29" rx="4" fill="white"/>
<path d="M23.5303 15.5303C23.8232 15.2374 23.8232 14.7626 23.5303 14.4697L18.7574 9.6967C18.4645 9.40381 17.9896 9.40381 17.6967 9.6967C17.4038 9.98959 17.4038 10.4645 17.6967 10.7574L21.9393 15L17.6967 19.2426C17.4038 19.5355 17.4038 20.0104 17.6967 20.3033C17.9896 20.5962 18.4645 20.5962 18.7574 20.3033L23.5303 15.5303ZM22 15.75L23 15.75L23 14.25L22 14.25L22 15.75Z" fill="#072C6D"/>
<path d="M2.46967 14.4697C2.17678 14.7626 2.17678 15.2374 2.46967 15.5303L7.24264 20.3033C7.53553 20.5962 8.01041 20.5962 8.3033 20.3033C8.59619 20.0104 8.59619 19.5355 8.3033 19.2426L4.06066 15L8.3033 10.7574C8.59619 10.4645 8.59619 9.98959 8.3033 9.6967C8.01041 9.40381 7.53553 9.40381 7.24264 9.6967L2.46967 14.4697ZM4 14.25H3V15.75H4V14.25Z" fill="#072C6D"/>
</svg>
