<svg width="18" height="18" viewBox="0 0 18 18" fill="none" xmlns="http://www.w3.org/2000/svg">
<path d="M17.8295 17.0207L13.1821 12.4477C14.3991 11.1255 15.1469 9.37682 15.1469 7.45261C15.1463 3.33639 11.7559 0 7.57327 0C3.39066 0 0.000244141 3.33639 0.000244141 7.45261C0.000244141 11.5688 3.39066 14.9052 7.57327 14.9052C9.38044 14.9052 11.0379 14.2802 12.3399 13.241L17.0052 17.832C17.2325 18.056 17.6016 18.056 17.8289 17.832C17.883 17.7792 17.926 17.7162 17.9553 17.6465C17.9847 17.5769 17.9998 17.5021 17.9999 17.4265C17.9999 17.3509 17.9849 17.2761 17.9556 17.2064C17.9263 17.1367 17.8835 17.0736 17.8295 17.0207ZM7.57327 13.7586C4.03432 13.7586 1.16546 10.9353 1.16546 7.45261C1.16546 3.96991 4.03432 1.14663 7.57327 1.14663C11.1122 1.14663 13.9811 3.96991 13.9811 7.45261C13.9811 10.9353 11.1122 13.7586 7.57327 13.7586Z" fill="#072C6D"/>
</svg>
